<mxfile host="app.diagrams.net" modified="2021-04-14T11:36:01.284Z" agent="5.0 (Windows)" etag="Cis0w6IsZjpuEEIoC7Sr" version="14.6.0" type="github">
  <diagram id="IM56yYHOrojFOmK578Ti" name="Page-1">
    <mxGraphModel dx="1810" dy="510" grid="1" gridSize="10" guides="1" tooltips="1" connect="1" arrows="1" fold="1" page="1" pageScale="1" pageWidth="827" pageHeight="1169" math="0" shadow="0">
      <root>
        <mxCell id="0" />
        <mxCell id="1" parent="0" />
        <mxCell id="oKg-3QPCwkelf5UwvHAK-48" value="" style="verticalLabelPosition=bottom;verticalAlign=top;html=1;shape=mxgraph.basic.patternFillRect;fillStyle=diag;step=5;fillStrokeWidth=0.2;fillStrokeColor=#dddddd;" parent="1" vertex="1">
          <mxGeometry x="-140" y="221.25" width="680" height="227.5" as="geometry" />
        </mxCell>
        <mxCell id="oKg-3QPCwkelf5UwvHAK-47" value="" style="verticalLabelPosition=bottom;verticalAlign=top;html=1;shape=mxgraph.basic.patternFillRect;fillStyle=grid;step=5;fillStrokeWidth=0.2;fillStrokeColor=#dddddd;fillColor=#f5f5f5;strokeColor=#666666;fontColor=#333333;" parent="1" vertex="1">
          <mxGeometry x="-140" y="550" width="680" height="400" as="geometry" />
        </mxCell>
        <mxCell id="i_lPHEQ8BNNI-TLY4uVs-18" value="vip1 192.168.186.88" style="text;html=1;strokeColor=none;fillColor=none;align=center;verticalAlign=middle;whiteSpace=wrap;rounded=0;" parent="1" vertex="1">
          <mxGeometry x="-132.5" y="335" width="160" height="20" as="geometry" />
        </mxCell>
        <mxCell id="oKg-3QPCwkelf5UwvHAK-1" value="" style="rounded=0;whiteSpace=wrap;html=1;" parent="1" vertex="1">
          <mxGeometry x="130" y="600" width="140" height="120" as="geometry" />
        </mxCell>
        <mxCell id="oKg-3QPCwkelf5UwvHAK-10" style="edgeStyle=orthogonalEdgeStyle;rounded=0;orthogonalLoop=1;jettySize=auto;html=1;exitX=0;exitY=0.5;exitDx=0;exitDy=0;entryX=1;entryY=0.5;entryDx=0;entryDy=0;fillColor=#d5e8d4;strokeColor=#82b366;" parent="1" source="oKg-3QPCwkelf5UwvHAK-3" target="oKg-3QPCwkelf5UwvHAK-1" edge="1">
          <mxGeometry relative="1" as="geometry" />
        </mxCell>
        <mxCell id="oKg-3QPCwkelf5UwvHAK-3" value="" style="rounded=0;whiteSpace=wrap;html=1;" parent="1" vertex="1">
          <mxGeometry x="329" y="600" width="140" height="120" as="geometry" />
        </mxCell>
        <mxCell id="oKg-3QPCwkelf5UwvHAK-34" style="edgeStyle=orthogonalEdgeStyle;rounded=0;orthogonalLoop=1;jettySize=auto;html=1;exitX=1;exitY=0.5;exitDx=0;exitDy=0;entryX=0.132;entryY=0.286;entryDx=0;entryDy=0;entryPerimeter=0;fillColor=#d5e8d4;strokeColor=#82b366;" parent="1" source="oKg-3QPCwkelf5UwvHAK-4" target="i_lPHEQ8BNNI-TLY4uVs-14" edge="1">
          <mxGeometry relative="1" as="geometry" />
        </mxCell>
        <mxCell id="oKg-3QPCwkelf5UwvHAK-4" value="" style="rounded=0;whiteSpace=wrap;html=1;" parent="1" vertex="1">
          <mxGeometry x="-70" y="600" width="140" height="120" as="geometry" />
        </mxCell>
        <mxCell id="oKg-3QPCwkelf5UwvHAK-8" style="edgeStyle=orthogonalEdgeStyle;rounded=0;orthogonalLoop=1;jettySize=auto;html=1;exitX=0.5;exitY=1;exitDx=0;exitDy=0;entryX=0.5;entryY=0;entryDx=0;entryDy=0;fillColor=#f8cecc;strokeColor=#b85450;" parent="1" source="oKg-3QPCwkelf5UwvHAK-5" target="oKg-3QPCwkelf5UwvHAK-1" edge="1">
          <mxGeometry relative="1" as="geometry">
            <Array as="points">
              <mxPoint x="95" y="500" />
              <mxPoint x="200" y="500" />
            </Array>
          </mxGeometry>
        </mxCell>
        <mxCell id="oKg-3QPCwkelf5UwvHAK-15" style="edgeStyle=orthogonalEdgeStyle;rounded=0;orthogonalLoop=1;jettySize=auto;html=1;exitX=0.5;exitY=1;exitDx=0;exitDy=0;entryX=0.25;entryY=0;entryDx=0;entryDy=0;fillColor=#f8cecc;strokeColor=#b85450;" parent="1" source="oKg-3QPCwkelf5UwvHAK-5" target="oKg-3QPCwkelf5UwvHAK-3" edge="1">
          <mxGeometry relative="1" as="geometry">
            <Array as="points">
              <mxPoint x="95" y="500" />
              <mxPoint x="364" y="500" />
            </Array>
          </mxGeometry>
        </mxCell>
        <mxCell id="oKg-3QPCwkelf5UwvHAK-16" style="edgeStyle=orthogonalEdgeStyle;rounded=0;orthogonalLoop=1;jettySize=auto;html=1;exitX=1;exitY=0.5;exitDx=0;exitDy=0;" parent="1" source="oKg-3QPCwkelf5UwvHAK-5" edge="1">
          <mxGeometry relative="1" as="geometry">
            <mxPoint x="230" y="345.17647058823536" as="targetPoint" />
          </mxGeometry>
        </mxCell>
        <mxCell id="oKg-3QPCwkelf5UwvHAK-36" style="edgeStyle=orthogonalEdgeStyle;rounded=0;orthogonalLoop=1;jettySize=auto;html=1;exitX=0.5;exitY=1;exitDx=0;exitDy=0;entryX=0.5;entryY=0;entryDx=0;entryDy=0;fillColor=#f8cecc;strokeColor=#b85450;" parent="1" source="oKg-3QPCwkelf5UwvHAK-5" target="oKg-3QPCwkelf5UwvHAK-28" edge="1">
          <mxGeometry relative="1" as="geometry">
            <Array as="points">
              <mxPoint x="95" y="500" />
              <mxPoint y="500" />
            </Array>
          </mxGeometry>
        </mxCell>
        <mxCell id="oKg-3QPCwkelf5UwvHAK-43" style="edgeStyle=orthogonalEdgeStyle;rounded=0;orthogonalLoop=1;jettySize=auto;html=1;exitX=0.5;exitY=1;exitDx=0;exitDy=0;entryX=0;entryY=0.5;entryDx=0;entryDy=0;fillColor=#f8cecc;strokeColor=#b85450;" parent="1" source="oKg-3QPCwkelf5UwvHAK-5" target="oKg-3QPCwkelf5UwvHAK-40" edge="1">
          <mxGeometry relative="1" as="geometry">
            <mxPoint x="110" y="850" as="targetPoint" />
          </mxGeometry>
        </mxCell>
        <mxCell id="oKg-3QPCwkelf5UwvHAK-5" value="" style="shape=hexagon;perimeter=hexagonPerimeter2;whiteSpace=wrap;html=1;fixedSize=1;" parent="1" vertex="1">
          <mxGeometry x="27.5" y="300" width="135" height="90" as="geometry" />
        </mxCell>
        <mxCell id="oKg-3QPCwkelf5UwvHAK-9" style="edgeStyle=orthogonalEdgeStyle;rounded=0;orthogonalLoop=1;jettySize=auto;html=1;exitX=0.5;exitY=1;exitDx=0;exitDy=0;entryX=0.5;entryY=0;entryDx=0;entryDy=0;fillColor=#dae8fc;strokeColor=#6c8ebf;" parent="1" source="oKg-3QPCwkelf5UwvHAK-6" target="oKg-3QPCwkelf5UwvHAK-3" edge="1">
          <mxGeometry relative="1" as="geometry">
            <Array as="points">
              <mxPoint x="299" y="470" />
              <mxPoint x="399" y="470" />
            </Array>
          </mxGeometry>
        </mxCell>
        <mxCell id="oKg-3QPCwkelf5UwvHAK-14" style="edgeStyle=orthogonalEdgeStyle;rounded=0;orthogonalLoop=1;jettySize=auto;html=1;exitX=0.5;exitY=1;exitDx=0;exitDy=0;entryX=0.75;entryY=0;entryDx=0;entryDy=0;fillColor=#dae8fc;strokeColor=#6c8ebf;" parent="1" source="oKg-3QPCwkelf5UwvHAK-6" target="oKg-3QPCwkelf5UwvHAK-1" edge="1">
          <mxGeometry relative="1" as="geometry">
            <Array as="points">
              <mxPoint x="299" y="470" />
              <mxPoint x="235" y="470" />
            </Array>
          </mxGeometry>
        </mxCell>
        <mxCell id="oKg-3QPCwkelf5UwvHAK-17" style="edgeStyle=orthogonalEdgeStyle;rounded=0;orthogonalLoop=1;jettySize=auto;html=1;exitX=0;exitY=0.5;exitDx=0;exitDy=0;" parent="1" source="oKg-3QPCwkelf5UwvHAK-6" edge="1">
          <mxGeometry relative="1" as="geometry">
            <mxPoint x="160" y="345" as="targetPoint" />
          </mxGeometry>
        </mxCell>
        <mxCell id="oKg-3QPCwkelf5UwvHAK-35" style="edgeStyle=orthogonalEdgeStyle;rounded=0;orthogonalLoop=1;jettySize=auto;html=1;exitX=0.5;exitY=1;exitDx=0;exitDy=0;entryX=1;entryY=0;entryDx=0;entryDy=0;fillColor=#dae8fc;strokeColor=#6c8ebf;" parent="1" source="oKg-3QPCwkelf5UwvHAK-6" target="oKg-3QPCwkelf5UwvHAK-28" edge="1">
          <mxGeometry relative="1" as="geometry">
            <Array as="points">
              <mxPoint x="299" y="470" />
              <mxPoint x="15" y="470" />
            </Array>
          </mxGeometry>
        </mxCell>
        <mxCell id="oKg-3QPCwkelf5UwvHAK-45" style="edgeStyle=orthogonalEdgeStyle;rounded=0;orthogonalLoop=1;jettySize=auto;html=1;exitX=0.5;exitY=1;exitDx=0;exitDy=0;entryX=1;entryY=0.5;entryDx=0;entryDy=0;fillColor=#dae8fc;strokeColor=#6c8ebf;" parent="1" source="oKg-3QPCwkelf5UwvHAK-6" target="oKg-3QPCwkelf5UwvHAK-40" edge="1">
          <mxGeometry relative="1" as="geometry" />
        </mxCell>
        <mxCell id="oKg-3QPCwkelf5UwvHAK-6" value="" style="shape=hexagon;perimeter=hexagonPerimeter2;whiteSpace=wrap;html=1;fixedSize=1;" parent="1" vertex="1">
          <mxGeometry x="231.5" y="300" width="135" height="90" as="geometry" />
        </mxCell>
        <mxCell id="oKg-3QPCwkelf5UwvHAK-38" style="edgeStyle=orthogonalEdgeStyle;rounded=0;orthogonalLoop=1;jettySize=auto;html=1;exitX=0.5;exitY=1;exitDx=0;exitDy=0;entryX=0.5;entryY=0;entryDx=0;entryDy=0;fillColor=#fff2cc;strokeColor=#d6b656;" parent="1" source="oKg-3QPCwkelf5UwvHAK-18" target="i_lPHEQ8BNNI-TLY4uVs-16" edge="1">
          <mxGeometry relative="1" as="geometry">
            <Array as="points">
              <mxPoint x="200" y="250" />
              <mxPoint x="95" y="250" />
            </Array>
          </mxGeometry>
        </mxCell>
        <mxCell id="oKg-3QPCwkelf5UwvHAK-39" style="edgeStyle=orthogonalEdgeStyle;rounded=0;orthogonalLoop=1;jettySize=auto;html=1;exitX=0.5;exitY=1;exitDx=0;exitDy=0;entryX=0.5;entryY=0;entryDx=0;entryDy=0;fillColor=#fff2cc;strokeColor=#d6b656;" parent="1" source="oKg-3QPCwkelf5UwvHAK-18" target="i_lPHEQ8BNNI-TLY4uVs-17" edge="1">
          <mxGeometry relative="1" as="geometry">
            <Array as="points">
              <mxPoint x="200" y="250" />
              <mxPoint x="299" y="250" />
            </Array>
          </mxGeometry>
        </mxCell>
        <mxCell id="oKg-3QPCwkelf5UwvHAK-18" value="&lt;div&gt;192.168.186.134&lt;/div&gt;" style="whiteSpace=wrap;html=1;aspect=fixed;" parent="1" vertex="1">
          <mxGeometry x="125" y="50" width="150" height="150" as="geometry" />
        </mxCell>
        <mxCell id="oKg-3QPCwkelf5UwvHAK-19" value="vip2 192.168.186.90" style="text;html=1;strokeColor=none;fillColor=none;align=center;verticalAlign=middle;whiteSpace=wrap;rounded=0;" parent="1" vertex="1">
          <mxGeometry x="366.5" y="335" width="160" height="20" as="geometry" />
        </mxCell>
        <mxCell id="oKg-3QPCwkelf5UwvHAK-20" value="7001" style="rounded=1;whiteSpace=wrap;html=1;fillColor=#f5f5f5;strokeColor=#666666;fontColor=#333333;" parent="1" vertex="1">
          <mxGeometry x="60" y="365" width="30" height="25" as="geometry" />
        </mxCell>
        <mxCell id="oKg-3QPCwkelf5UwvHAK-22" value="7002" style="rounded=1;whiteSpace=wrap;html=1;fillColor=#f5f5f5;strokeColor=#666666;fontColor=#333333;" parent="1" vertex="1">
          <mxGeometry x="110" y="365" width="30" height="25" as="geometry" />
        </mxCell>
        <mxCell id="oKg-3QPCwkelf5UwvHAK-24" value="7001" style="rounded=1;whiteSpace=wrap;html=1;fillColor=#f5f5f5;strokeColor=#666666;fontColor=#333333;" parent="1" vertex="1">
          <mxGeometry x="260" y="365" width="30" height="25" as="geometry" />
        </mxCell>
        <mxCell id="oKg-3QPCwkelf5UwvHAK-25" value="7002" style="rounded=1;whiteSpace=wrap;html=1;fillColor=#f5f5f5;strokeColor=#666666;fontColor=#333333;" parent="1" vertex="1">
          <mxGeometry x="310" y="365" width="30" height="25" as="geometry" />
        </mxCell>
        <mxCell id="oKg-3QPCwkelf5UwvHAK-26" value="3306" style="rounded=1;whiteSpace=wrap;html=1;fillColor=#f5f5f5;strokeColor=#666666;fontColor=#333333;" parent="1" vertex="1">
          <mxGeometry x="185" y="600" width="30" height="25" as="geometry" />
        </mxCell>
        <mxCell id="oKg-3QPCwkelf5UwvHAK-27" value="3306" style="rounded=1;whiteSpace=wrap;html=1;fillColor=#f5f5f5;strokeColor=#666666;fontColor=#333333;" parent="1" vertex="1">
          <mxGeometry x="384" y="600" width="30" height="25" as="geometry" />
        </mxCell>
        <mxCell id="oKg-3QPCwkelf5UwvHAK-28" value="3306" style="rounded=1;whiteSpace=wrap;html=1;fillColor=#f5f5f5;strokeColor=#666666;fontColor=#333333;" parent="1" vertex="1">
          <mxGeometry x="-15" y="600" width="30" height="25" as="geometry" />
        </mxCell>
        <mxCell id="oKg-3QPCwkelf5UwvHAK-29" value="client" style="text;html=1;strokeColor=none;fillColor=none;align=center;verticalAlign=middle;whiteSpace=wrap;rounded=0;" parent="1" vertex="1">
          <mxGeometry x="180" y="80" width="40" height="20" as="geometry" />
        </mxCell>
        <mxCell id="i_lPHEQ8BNNI-TLY4uVs-15" value="&lt;div&gt;mysql-slave&lt;br&gt;&lt;/div&gt;&lt;div&gt;192.168.186.129&lt;br&gt;mysql 5.7.33&lt;/div&gt;" style="text;html=1;strokeColor=none;fillColor=none;align=center;verticalAlign=middle;whiteSpace=wrap;rounded=0;" parent="1" vertex="1">
          <mxGeometry x="304" y="640" width="190" height="70" as="geometry" />
        </mxCell>
        <mxCell id="i_lPHEQ8BNNI-TLY4uVs-14" value="&lt;div&gt;mysql-master&lt;br&gt;&lt;/div&gt;&lt;div&gt;192.168.186.128&lt;br&gt;mysql 5.7.33&lt;br&gt;&lt;/div&gt;" style="text;html=1;strokeColor=none;fillColor=none;align=center;verticalAlign=middle;whiteSpace=wrap;rounded=0;" parent="1" vertex="1">
          <mxGeometry x="105" y="640" width="190" height="70" as="geometry" />
        </mxCell>
        <mxCell id="oKg-3QPCwkelf5UwvHAK-30" value="&lt;div&gt;mysql-delay&lt;br&gt;&lt;/div&gt;&lt;div&gt;192.168.186.132&lt;br&gt;mysql 5.7.33&lt;/div&gt;" style="text;html=1;strokeColor=none;fillColor=none;align=center;verticalAlign=middle;whiteSpace=wrap;rounded=0;" parent="1" vertex="1">
          <mxGeometry x="-95" y="640" width="190" height="70" as="geometry" />
        </mxCell>
        <mxCell id="i_lPHEQ8BNNI-TLY4uVs-16" value="&lt;div&gt;master&lt;br&gt;&lt;/div&gt;&lt;div&gt;192.168.186.130&lt;br&gt;MySQL Router&amp;nbsp; Ver 8.0.23&lt;br&gt;Keepalived v1.3.5&lt;br&gt;&lt;/div&gt;" style="text;html=1;strokeColor=none;fillColor=none;align=center;verticalAlign=middle;whiteSpace=wrap;rounded=0;" parent="1" vertex="1">
          <mxGeometry y="295" width="190" height="70" as="geometry" />
        </mxCell>
        <mxCell id="i_lPHEQ8BNNI-TLY4uVs-17" value="&lt;div&gt;backup&lt;br&gt;&lt;/div&gt;&lt;div&gt;192.168.186.131&lt;br&gt;MySQL Router&amp;nbsp; Ver 8.0.23&lt;br&gt;Keepalived v1.3.5&lt;/div&gt;" style="text;html=1;strokeColor=none;fillColor=none;align=center;verticalAlign=middle;whiteSpace=wrap;rounded=0;" parent="1" vertex="1">
          <mxGeometry x="204" y="300" width="190" height="70" as="geometry" />
        </mxCell>
        <mxCell id="oKg-3QPCwkelf5UwvHAK-40" value="" style="rounded=0;whiteSpace=wrap;html=1;" parent="1" vertex="1">
          <mxGeometry x="130" y="780" width="140" height="120" as="geometry" />
        </mxCell>
        <mxCell id="oKg-3QPCwkelf5UwvHAK-41" value="3306" style="rounded=1;whiteSpace=wrap;html=1;fillColor=#f5f5f5;strokeColor=#666666;fontColor=#333333;" parent="1" vertex="1">
          <mxGeometry x="185" y="780" width="30" height="25" as="geometry" />
        </mxCell>
        <mxCell id="oKg-3QPCwkelf5UwvHAK-46" value="&lt;div&gt;mysql-slave2&lt;br&gt;&lt;/div&gt;&lt;div&gt;192.168.186.133&lt;br&gt;mysql 5.7.33&lt;/div&gt;" style="text;html=1;strokeColor=none;fillColor=none;align=center;verticalAlign=middle;whiteSpace=wrap;rounded=0;" parent="1" vertex="1">
          <mxGeometry x="105" y="810" width="190" height="70" as="geometry" />
        </mxCell>
        <mxCell id="oKg-3QPCwkelf5UwvHAK-49" value="中间件" style="text;html=1;strokeColor=none;fillColor=none;align=center;verticalAlign=middle;whiteSpace=wrap;rounded=0;fontSize=38;" parent="1" vertex="1">
          <mxGeometry x="560" y="327.5" width="220" height="35" as="geometry" />
        </mxCell>
        <mxCell id="oKg-3QPCwkelf5UwvHAK-51" value="&lt;div&gt;mysql-slave&lt;br&gt;&lt;/div&gt;&lt;div&gt;192.168.186.129&lt;br&gt;mysql 5.7.33&lt;/div&gt;" style="text;html=1;strokeColor=none;fillColor=none;align=center;verticalAlign=middle;whiteSpace=wrap;rounded=0;" parent="1" vertex="1">
          <mxGeometry x="304" y="640" width="190" height="70" as="geometry" />
        </mxCell>
        <mxCell id="oKg-3QPCwkelf5UwvHAK-52" value="MySQL集群" style="text;html=1;strokeColor=none;fillColor=none;align=center;verticalAlign=middle;whiteSpace=wrap;rounded=0;fontSize=38;" parent="1" vertex="1">
          <mxGeometry x="560" y="732.5" width="220" height="35" as="geometry" />
        </mxCell>
      </root>
    </mxGraphModel>
  </diagram>
</mxfile>
